<svg width="25" height="25" viewBox="0 0 25 25" fill="none" xmlns="http://www.w3.org/2000/svg">
<mask id="mask0_732_16" style="mask-type:alpha" maskUnits="userSpaceOnUse" x="0" y="0" width="25" height="25">
<rect x="0.689941" y="0.081665" width="24" height="24" fill="#D9D9D9"/>
</mask>
<g mask="url(#mask0_732_16)">
<path d="M7.68994 21.0817C7.13994 21.0817 6.66911 20.8858 6.27744 20.4942C5.88577 20.1025 5.68994 19.6317 5.68994 19.0817V6.08167H4.68994V4.08167H9.68994V3.08167H15.6899V4.08167H20.6899V6.08167H19.6899V19.0817C19.6899 19.6317 19.4941 20.1025 19.1024 20.4942C18.7108 20.8858 18.2399 21.0817 17.6899 21.0817H7.68994ZM17.6899 6.08167H7.68994V19.0817H17.6899V6.08167ZM9.68994 17.0817H11.6899V8.08167H9.68994V17.0817ZM13.6899 17.0817H15.6899V8.08167H13.6899V17.0817Z" fill="#454545"/>
</g>
</svg>
