<svg width="200" height="200" viewBox="0 0 200 200" fill="none" xmlns="http://www.w3.org/2000/svg">
<circle cx="100" cy="100" r="100" fill="#D9D9D9"/>
<mask id="mask0_8_8" style="mask-type:alpha" maskUnits="userSpaceOnUse" x="55" y="55" width="90" height="90">
<rect x="55.5557" y="55.5555" width="88.8889" height="88.8889" fill="#D9D9D9"/>
</mask>
<g mask="url(#mask0_8_8)">
<path d="M91.4817 124.815L86.2965 119.63L94.815 111.111L86.2965 102.593L91.4817 97.4074L100 105.926L108.519 97.4074L113.704 102.593L105.185 111.111L113.704 119.63L108.519 124.815L100 116.296L91.4817 124.815ZM74.0743 137.037C72.0372 137.037 70.2934 136.312 68.8428 134.861C67.3922 133.41 66.6669 131.667 66.6669 129.63V77.7778C66.6669 75.7407 67.3922 73.9969 68.8428 72.5463C70.2934 71.0957 72.0372 70.3704 74.0743 70.3704H77.778V62.963H85.1854V70.3704H114.815V62.963H122.222V70.3704H125.926C127.963 70.3704 129.707 71.0957 131.158 72.5463C132.608 73.9969 133.334 75.7407 133.334 77.7778V129.63C133.334 131.667 132.608 133.41 131.158 134.861C129.707 136.312 127.963 137.037 125.926 137.037H74.0743ZM74.0743 129.63H125.926V92.5926H74.0743V129.63ZM74.0743 85.1852H125.926V77.7778H74.0743V85.1852Z" fill="#1C1B1F"/>
</g>
</svg>
