<svg width="150" height="150" viewBox="0 0 150 150" fill="none" xmlns="http://www.w3.org/2000/svg">
<circle cx="75" cy="75" r="75" fill="#D9D9D9"/>
<mask id="mask0_1_15" style="mask-type:alpha" maskUnits="userSpaceOnUse" x="41" y="41" width="68" height="68">
<rect x="41.6667" y="41.6667" width="66.6667" height="66.6667" fill="#D9D9D9"/>
</mask>
<g mask="url(#mask0_1_15)">
<path d="M61.1111 100C59.5833 100 58.2755 99.456 57.1875 98.3681C56.0995 97.2801 55.5556 95.9722 55.5556 94.4444V58.3333H52.7778V52.7778H66.6667V50H83.3333V52.7778H97.2222V58.3333H94.4444V94.4444C94.4444 95.9722 93.9005 97.2801 92.8125 98.3681C91.7245 99.456 90.4167 100 88.8889 100H61.1111ZM88.8889 58.3333H61.1111V94.4444H88.8889V58.3333ZM66.6667 88.8889H72.2222V63.8889H66.6667V88.8889ZM77.7778 88.8889H83.3333V63.8889H77.7778V88.8889Z" fill="#1C1B1F"/>
</g>
</svg>
